<?xml version="1.0" standalone="no"?>
<!DOCTYPE svg PUBLIC "-//W3C//DTD SVG 20010904//EN"
 "http://www.w3.org/TR/2001/REC-SVG-20010904/DTD/svg10.dtd">
<svg version="1.0" xmlns="http://www.w3.org/2000/svg"
 width="637.000000pt" height="489.000000pt" viewBox="0 0 637.000000 489.000000"
 preserveAspectRatio="xMidYMid meet">

<g transform="translate(0.000000,489.000000) scale(0.100000,-0.100000)"
fill="#000000" stroke="none">
<path d="M0 2445 l0 -2445 3150 0 3150 0 0 2445 0 2445 -3150 0 -3150 0 0
-2445z m3066 1537 c-4 -3 -14 2 -24 12 -16 18 -16 18 6 6 13 -6 21 -14 18 -18z
m214 -12 c0 -14 -14 -12 -28 2 -19 19 -14 30 8 18 11 -6 20 -15 20 -20z m-410
0 c12 -8 11 -10 -7 -10 -12 0 -25 5 -28 10 -8 13 15 13 35 0z m261 -20 l24
-19 -22 -1 c-12 0 -27 9 -33 20 -14 26 1 26 31 0z m-181 -15 c10 -12 9 -15 -8
-15 -11 0 -25 7 -32 15 -10 12 -9 15 8 15 11 0 25 -7 32 -15z m520 -27 c0 -14
-19 1 -31 25 -12 22 -12 22 10 3 11 -11 21 -23 21 -28z m-142 20 c16 -16 15
-28 -3 -28 -8 0 -19 9 -25 20 -8 15 -8 20 3 20 7 0 18 -5 25 -12z m-317 -18
c22 -12 26 -40 6 -40 -18 0 -49 34 -40 43 8 9 11 9 34 -3z m184 -10 c21 -23
12 -39 -13 -24 -19 12 -29 44 -14 44 5 0 17 -9 27 -20z m-515 0 c0 -12 -8 -12
-35 0 -18 8 -17 9 8 9 15 1 27 -3 27 -9z m80 -10 c8 -5 11 -12 8 -16 -10 -9
-58 4 -58 16 0 13 30 13 50 0z m75 -23 c12 -10 15 -16 6 -21 -16 -10 -51 3
-51 20 0 18 21 18 45 1z m549 -10 c12 -19 3 -32 -19 -24 -17 7 -21 51 -3 45 6
-2 16 -12 22 -21z m124 -7 c3 -21 2 -22 -12 -11 -19 16 -21 44 -3 39 6 -3 14
-15 15 -28z m-418 0 c9 -16 8 -22 -5 -26 -18 -7 -45 12 -45 32 0 21 38 17 50
-6z m165 -10 c14 -16 16 -23 7 -32 -10 -10 -17 -7 -33 9 -12 11 -18 26 -15 32
10 16 21 14 41 -9z m-354 0 c21 -12 26 -40 6 -40 -22 0 -51 26 -43 38 9 15 12
15 37 2z m746 -5 c9 -25 -4 -29 -17 -6 -7 15 -7 21 0 21 6 0 13 -7 17 -15z
m-1058 -24 c20 -13 -5 -24 -37 -16 -20 5 -23 8 -11 16 18 11 30 11 48 0z m552
-1 c25 -14 25 -50 0 -50 -24 0 -45 25 -37 45 6 18 11 18 37 5z m-643 -7 c-10
-2 -26 -2 -35 0 -10 3 -2 5 17 5 19 0 27 -2 18 -5z m178 -4 c3 -6 1 -15 -6
-19 -17 -11 -50 0 -50 16 0 17 46 19 56 3z m308 -11 c8 -13 7 -21 -2 -30 -10
-10 -17 -8 -33 9 -23 22 -18 46 8 41 9 -2 21 -11 27 -20z m445 4 c5 -10 6 -24
1 -32 -7 -11 -11 -11 -24 -1 -20 17 -21 51 -1 51 8 0 19 -8 24 -18z m119 -15
c4 -31 -12 -36 -28 -8 -15 29 -12 43 8 39 10 -2 18 -14 20 -31z m-788 -7 c0
-15 -19 -22 -40 -15 -22 7 -27 31 -7 38 15 5 47 -10 47 -23z m549 1 c15 -28
-11 -48 -33 -26 -9 9 -16 23 -16 31 0 21 38 17 49 -5z m369 -19 c4 -25 -13
-30 -22 -6 -9 25 -7 36 7 32 6 -3 13 -14 15 -26z m-848 3 c15 -18 5 -35 -20
-35 -22 0 -34 15 -26 35 7 19 30 19 46 0z m220 -10 c15 -18 6 -45 -13 -45 -20
0 -40 27 -33 45 7 19 30 19 46 0z m160 -25 c0 -13 -7 -20 -20 -20 -23 0 -35
22 -26 45 8 22 46 1 46 -25z m248 8 c19 -19 15 -48 -8 -48 -23 0 -35 22 -26
45 7 18 18 19 34 3z m120 -32 c-2 -12 -7 -21 -12 -21 -15 0 -29 31 -22 50 5
14 9 15 22 5 8 -8 14 -23 12 -34z m-670 7 c3 -17 -2 -23 -15 -23 -22 0 -43 18
-43 38 0 9 9 12 28 10 19 -2 28 -9 30 -25z m895 7 c3 -11 1 -20 -4 -20 -5 0
-9 2 -9 4 0 2 -3 11 -6 20 -3 9 -2 16 4 16 5 0 12 -9 15 -20z m-453 -5 c15
-18 6 -45 -13 -45 -20 0 -40 27 -33 45 7 19 30 19 46 0z m-835 -15 c0 -18 -25
-24 -45 -10 -13 9 -13 11 0 20 20 14 45 8 45 -10z m76 9 c24 -13 16 -29 -16
-29 -29 0 -43 19 -24 31 18 11 17 11 40 -2z m1119 -36 c0 -18 -29 -16 -36 2
-4 8 -3 23 1 33 6 16 7 16 21 -2 8 -11 14 -26 14 -33z m-1277 22 c1 -5 -10
-11 -25 -13 -16 -2 -28 1 -28 7 0 20 49 26 53 6z m247 0 c6 -8 9 -19 5 -25 -9
-15 -41 -12 -56 6 -10 13 -10 17 2 25 20 13 35 11 49 -6z m435 -15 c0 -20 -5
-25 -25 -25 -20 0 -26 6 -28 28 -3 26 -1 28 25 25 22 -2 28 -8 28 -28z m-140
-10 c0 -33 -40 -41 -50 -11 -9 28 2 43 28 39 16 -2 22 -10 22 -28z m273 18
c17 -17 15 -45 -4 -52 -20 -8 -44 10 -44 34 0 31 26 40 48 18z m-893 -8 c-3
-5 -18 -10 -33 -10 -21 0 -24 2 -12 10 20 13 53 13 45 0z m405 -6 c11 -12 11
-18 -2 -30 -17 -17 -44 -10 -53 13 -11 30 34 44 55 17z m730 -19 c16 -19 6
-45 -19 -45 -21 0 -33 22 -25 45 8 19 28 19 44 0z m115 -13 c7 -19 -18 -47
-34 -38 -12 8 -15 49 -5 59 9 9 32 -3 39 -21z m215 -8 c0 -13 -4 -24 -10 -24
-5 0 -10 14 -10 31 0 17 4 28 10 24 6 -3 10 -17 10 -31z m-980 11 c15 -19 -3
-45 -31 -45 -19 0 -35 33 -24 50 9 15 41 12 55 -5z m538 6 c20 -12 11 -56 -12
-56 -27 0 -43 29 -27 49 15 18 21 19 39 7z m-330 -25 c6 -27 -25 -48 -49 -35
-22 11 -24 30 -7 47 18 18 52 10 56 -12z m121 10 c17 -20 2 -46 -25 -46 -26 0
-40 20 -30 45 7 19 40 20 55 1z m119 -15 c8 -4 12 -19 10 -32 -2 -18 -9 -24
-28 -24 -28 0 -39 27 -20 50 14 17 20 18 38 6z m430 -18 c-4 -33 -24 -41 -33
-14 -8 25 1 41 21 41 11 0 14 -8 12 -27z m-803 -13 c0 -29 -34 -40 -54 -17
-18 23 -2 49 28 45 20 -2 26 -8 26 -28z m-446 7 c14 -18 4 -27 -31 -27 -30 0
-35 9 -16 28 16 16 33 15 47 -1z m86 -7 c0 -16 -28 -25 -50 -16 -9 3 -12 12
-9 21 8 21 59 16 59 -5z m83 -7 c3 -19 -1 -23 -22 -23 -28 0 -41 14 -32 36 9
24 50 13 54 -13z m76 2 c22 -22 9 -47 -23 -43 -29 3 -42 35 -19 49 18 12 24
11 42 -6z m-324 -10 c0 -10 -10 -15 -30 -15 -29 0 -38 9 -23 23 13 13 53 7 53
-8z m715 -5 c9 -27 -1 -40 -30 -40 -29 0 -39 13 -30 40 4 13 15 20 30 20 15 0
26 -7 30 -20z m409 -2 c14 -22 -12 -52 -37 -42 -17 6 -23 44 -10 58 11 11 35
3 47 -16z m316 -14 c0 -15 -6 -24 -15 -24 -15 0 -21 40 -9 53 12 11 24 -3 24
-29z m-1035 10 c18 -18 16 -33 -7 -47 -35 -22 -66 21 -36 51 16 16 23 15 43
-4z m189 -6 c8 -14 7 -21 -5 -33 -28 -29 -73 11 -48 42 15 17 38 13 53 -9z
m231 -8 c0 -18 -6 -26 -23 -28 -13 -2 -25 3 -28 12 -10 26 4 48 28 44 17 -2
23 -10 23 -28z m199 8 c8 -14 7 -21 -6 -34 -30 -30 -75 9 -48 42 16 18 39 15
54 -8z m201 2 c8 -25 -1 -40 -24 -40 -19 0 -31 25 -24 48 7 19 41 14 48 -8z
m325 0 c0 -11 -4 -20 -10 -20 -5 0 -10 9 -10 20 0 11 5 20 10 20 6 0 10 -9 10
-20z m-1632 -2 c-3 -7 -18 -14 -34 -16 -28 -2 -28 -2 -10 13 24 18 49 20 44 3z
m1022 -27 c14 -28 -13 -55 -41 -41 -22 12 -25 30 -7 48 18 18 36 15 48 -7z
m395 -11 c0 -29 -32 -41 -41 -16 -9 24 4 48 23 44 12 -2 18 -12 18 -28z m-850
-10 c0 -18 -6 -26 -23 -28 -13 -2 -25 3 -28 12 -10 26 4 48 28 44 17 -2 23
-10 23 -28z m-655 10 c-20 -13 -43 -13 -35 0 3 6 16 10 28 10 18 0 19 -2 7
-10z m936 -22 c8 -25 -13 -40 -38 -27 -21 11 -24 45 -5 52 19 7 36 -3 43 -25z
m-108 -5 c3 -19 -1 -23 -22 -23 -28 0 -41 14 -32 36 9 24 50 13 54 -13z m-443
-13 c0 -20 -5 -25 -25 -25 -28 0 -41 32 -18 46 23 15 43 5 43 -21z m648 8 c16
-24 -8 -51 -34 -37 -19 10 -25 39 -12 53 11 11 35 3 46 -16z m265 10 c31 -31
-10 -75 -43 -48 -19 16 -19 25 1 44 19 19 26 20 42 4z m310 -29 c-4 -28 -31
-32 -36 -6 -5 23 18 51 30 39 6 -6 8 -20 6 -33z m112 17 c0 -14 -4 -28 -10
-31 -6 -4 -10 7 -10 24 0 17 5 31 10 31 6 0 10 -11 10 -24z m-1415 -11 c0 -23
-30 -32 -51 -14 -11 9 -12 15 -2 26 17 20 53 12 53 -12z m169 10 c9 -25 -5
-45 -30 -45 -26 0 -40 20 -30 45 3 8 16 15 30 15 13 0 26 -7 30 -15z m251 -14
c0 -30 -14 -36 -40 -18 -25 19 -13 50 17 45 17 -2 23 -10 23 -27z m486 8 c9
-17 8 -25 -4 -37 -29 -28 -73 12 -47 43 17 21 37 19 51 -6z m187 -8 c4 -29
-15 -43 -40 -30 -21 11 -23 30 -6 47 19 19 43 10 46 -17z m-1173 9 c8 -13 -12
-40 -29 -40 -6 0 -17 4 -25 9 -12 8 -12 12 -2 25 15 18 47 21 56 6z m321 -4
c15 -12 17 -18 8 -33 -14 -23 -43 -23 -57 -1 -8 12 -7 21 2 32 16 20 22 20 47
2z m-406 -25 c0 -21 -22 -33 -45 -25 -18 7 -19 16 -3 32 19 19 48 15 48 -7z
m989 0 c7 -13 6 -24 -3 -37 -12 -15 -16 -16 -30 -5 -16 14 -21 42 -9 54 12 13
32 7 42 -12z m369 -12 c2 -16 -3 -29 -12 -32 -20 -8 -39 18 -31 43 9 29 39 21
43 -11z m-868 6 c10 -12 10 -18 0 -30 -7 -8 -18 -15 -25 -15 -19 0 -38 28 -31
45 7 19 40 19 56 0z m250 -6 c7 -11 9 -24 5 -27 -9 -9 -40 13 -43 32 -5 23 25
20 38 -5z m90 2 c14 -27 13 -41 -5 -41 -17 0 -39 36 -30 50 10 16 23 12 35 -9z
m-180 -6 c20 -24 -1 -38 -28 -19 -12 8 -22 19 -22 25 0 15 36 10 50 -6z m-727
-2 c11 -10 -13 -33 -34 -33 -22 0 -24 11 -7 28 13 13 31 16 41 5z m995 -36 c4
-31 -12 -36 -28 -8 -15 29 -12 43 8 39 10 -2 18 -14 20 -31z m657 23 c10 -16
-5 -50 -21 -50 -15 0 -18 18 -8 44 7 18 20 21 29 6z m-1017 -12 c17 -17 15
-28 -6 -28 -19 0 -42 18 -42 32 0 12 35 9 48 -4z m607 2 c11 -17 -5 -50 -24
-50 -28 0 -46 26 -31 45 14 17 46 20 55 5z m89 -12 c8 -14 7 -21 -6 -34 -30
-30 -75 9 -48 42 16 18 39 15 54 -8z m206 -3 c0 -29 -28 -45 -40 -24 -11 17 6
49 25 49 9 0 15 -10 15 -25z m-1216 0 c9 -25 -5 -45 -30 -45 -14 0 -27 7 -30
15 -10 25 4 45 30 45 13 0 26 -7 30 -15z m81 -15 c0 -30 -35 -40 -55 -15 -10
12 -10 18 0 30 20 25 55 15 55 -15z m750 0 c0 -38 -39 -35 -43 3 -3 25 0 28
20 25 17 -2 23 -9 23 -28z m605 18 c0 -7 -5 -20 -10 -28 -8 -12 -10 -9 -10 13
0 15 5 27 10 27 6 0 10 -6 10 -12z m-1830 -8 c0 -11 -33 -30 -51 -30 -8 0 -5
7 6 20 19 21 45 27 45 10z m308 -14 c5 -25 -12 -39 -37 -31 -20 6 -28 34 -14
49 13 13 48 1 51 -18z m247 -1 c0 -14 -8 -21 -27 -23 -22 -3 -28 1 -28 16 0
25 10 33 35 30 12 -2 20 -10 20 -23z m370 15 c3 -5 1 -10 -4 -10 -6 0 -11 5
-11 10 0 6 2 10 4 10 3 0 8 -4 11 -10z m224 -18 c11 -21 -2 -48 -18 -38 -14 9
-15 56 -1 56 5 0 14 -8 19 -18z m349 -13 c4 -30 -22 -46 -44 -28 -17 14 -18
31 -2 47 19 19 43 9 46 -19z m-1270 -1 c-3 -25 -34 -36 -50 -20 -17 17 -1 42
27 42 22 0 26 -4 23 -22z m396 16 c25 -10 19 -34 -8 -34 -27 0 -41 14 -31 30
7 12 17 12 39 4z m-704 -33 c0 -5 -7 -12 -16 -15 -24 -9 -28 -7 -14 9 14 17
30 20 30 6z m230 -6 c0 -20 -39 -40 -52 -27 -6 6 -8 18 -5 26 8 20 57 21 57 1z
m1555 -16 c0 -15 -7 -25 -17 -27 -13 -3 -18 3 -18 21 0 13 3 27 7 31 13 12 28
-1 28 -25z m-401 6 c13 -34 -23 -66 -44 -40 -6 8 -9 23 -5 35 7 23 40 27 49 5z
m70 9 c23 -9 20 -51 -4 -59 -11 -3 -24 -3 -30 0 -14 9 -12 52 3 58 6 3 13 6
14 6 1 1 8 -2 17 -5z m214 -21 c-3 -31 -34 -44 -44 -19 -9 24 3 46 26 46 17 0
21 -5 18 -27z m221 -14 c-12 -21 -14 -22 -17 -6 -6 28 6 53 19 40 8 -8 7 -18
-2 -34z m-589 0 c0 -38 -24 -35 -28 4 -2 19 1 27 12 27 11 0 16 -10 16 -31z
m-1145 12 c7 -12 -22 -41 -41 -41 -17 0 -18 22 -2 38 14 14 35 16 43 3z m324
-5 c6 -7 8 -21 5 -30 -9 -24 -58 -17 -62 8 -6 31 36 48 57 22z m89 -8 c2 -12
-5 -19 -23 -24 -31 -8 -50 7 -41 31 8 22 60 16 64 -7z m71 13 c17 -11 5 -31
-19 -31 -21 0 -34 15 -25 30 8 12 25 13 44 1z m919 -32 c3 -28 -16 -43 -43
-33 -15 6 -21 45 -8 58 16 16 48 1 51 -25z m-1160 -6 c-3 -32 -44 -46 -54 -19
-10 26 4 46 31 46 23 0 26 -4 23 -27z m-328 -28 c-7 -8 -19 -15 -26 -15 -20 0
-17 27 4 39 23 13 39 -3 22 -24z m248 18 c13 -26 4 -43 -24 -43 -29 0 -41 24
-24 45 17 20 37 19 48 -2z m1326 -15 c7 -12 6 -21 -3 -32 -18 -22 -38 -20 -51
3 -7 15 -6 24 6 36 19 18 33 16 48 -7z m116 -3 c0 -28 -25 -44 -42 -27 -7 7
-6 17 1 31 16 30 41 27 41 -4z m-397 3 c5 -16 -10 -48 -23 -48 -11 0 -14 43
-3 53 10 11 21 8 26 -5z m76 -2 c20 -24 -14 -67 -40 -50 -13 8 -11 38 3 52 15
15 23 15 37 -2z m429 -13 c-4 -34 -28 -43 -28 -10 0 25 7 37 22 37 5 0 8 -12
6 -27z m-1281 0 c5 -15 -36 -28 -49 -15 -6 6 -7 15 -3 22 9 14 47 9 52 -7z
m-342 -18 c0 -13 -8 -21 -24 -23 -32 -5 -48 12 -31 33 18 22 55 15 55 -10z
m261 10 c7 -18 -13 -45 -33 -45 -17 0 -27 24 -19 45 7 20 45 19 52 0z m1019
-25 c0 -20 -6 -26 -27 -28 -24 -3 -28 0 -28 21 0 30 9 39 35 35 14 -2 20 -10
20 -28z m-1515 11 c0 -13 -28 -33 -41 -29 -8 3 -6 9 5 21 19 18 36 22 36 8z
m418 -22 c4 -30 -22 -46 -44 -28 -15 12 -19 41 -7 53 16 16 48 1 51 -25z
m1538 -5 c-4 -9 -9 -15 -11 -12 -3 3 -3 13 1 22 4 9 9 15 11 12 3 -3 3 -13 -1
-22z m-1798 -6 c-3 -24 -34 -36 -50 -20 -11 11 16 42 38 42 10 0 14 -8 12 -22z
m1557 -9 c0 -19 -5 -24 -24 -24 -30 0 -37 17 -15 39 22 22 39 15 39 -15z
m-1371 -1 c8 -14 7 -21 -6 -34 -30 -30 -75 9 -48 42 16 18 39 15 54 -8z m1251
-8 c0 -29 -34 -40 -54 -17 -18 23 -2 49 28 45 20 -2 26 -8 26 -28z m233 -6
c-5 -26 -38 -31 -38 -7 0 24 21 46 33 34 5 -5 7 -17 5 -27z m-434 -11 c-15
-24 -34 -28 -34 -6 0 26 21 46 34 33 7 -7 7 -16 0 -27z m-863 12 c0 -5 -9 -16
-20 -24 -18 -12 -22 -11 -27 4 -4 10 -1 21 7 26 17 11 40 8 40 -6z m-606 -15
c-10 -11 -20 -18 -23 -15 -7 6 18 35 31 35 5 0 2 -9 -8 -20z m1553 -1 c4 -22
-25 -50 -43 -43 -31 12 -8 68 25 62 8 -2 16 -11 18 -19z m-1390 -11 c-2 -15
-11 -24 -25 -26 -25 -4 -31 16 -11 36 20 20 40 14 36 -10z m166 16 c19 -7 21
-35 4 -52 -7 -7 -17 -8 -30 -1 -21 11 -23 30 -6 47 14 14 12 14 32 6z m203
-20 c7 -20 -22 -45 -43 -37 -14 5 -19 35 -7 46 12 13 44 7 50 -9z m1483 2 c0
-16 -24 -38 -33 -30 -8 9 11 44 23 44 6 0 10 -6 10 -14z m-266 -11 c13 -36
-23 -65 -49 -39 -19 19 -19 19 1 38 20 20 40 20 48 1z m-121 -7 c7 -21 -12
-48 -34 -48 -22 0 -34 22 -25 45 7 18 53 20 59 3z m235 -24 c-4 -23 -48 -32
-48 -10 0 8 7 22 16 31 19 19 38 7 32 -21z m-1590 -11 c2 -14 -4 -23 -17 -28
-39 -12 -53 12 -25 40 20 20 38 15 42 -12z m187 17 c11 -18 -6 -50 -25 -50
-25 0 -43 33 -28 48 15 15 45 16 53 2z m-355 -15 c0 -12 -28 -35 -44 -35 -11
0 -6 26 6 38 17 17 38 15 38 -3z m1394 -23 c-6 -9 -19 -19 -29 -20 -14 -3 -16
1 -10 20 9 28 27 40 40 27 6 -6 6 -15 -1 -27z m-914 20 c0 -14 -23 -32 -42
-32 -21 0 -23 11 -6 28 13 13 48 16 48 4z m1106 -16 c15 -12 17 -18 8 -33 -14
-23 -43 -23 -57 -1 -8 12 -7 21 2 32 16 20 22 20 47 2z m284 0 c0 -16 -28 -42
-36 -33 -3 3 -3 15 1 26 7 23 35 29 35 7z m-1582 -27 c3 -28 -16 -43 -43 -33
-15 6 -21 45 -8 58 16 16 48 1 51 -25z m1180 7 c6 -31 -43 -50 -54 -21 -8 20
15 47 35 43 9 -2 17 -12 19 -22z m240 -13 c-3 -31 -34 -44 -44 -19 -7 19 12
46 33 46 10 0 13 -9 11 -27z m-1603 7 c9 -15 -14 -40 -36 -40 -21 0 -25 20 -7
38 15 15 35 15 43 2z m305 -9 c0 -10 -7 -24 -16 -31 -12 -11 -18 -10 -31 3
-13 13 -14 19 -3 31 18 22 50 20 50 -3z m-470 -5 c0 -16 -28 -42 -36 -33 -8 7
14 47 26 47 6 0 10 -6 10 -14z m2017 -21 c-4 -8 -11 -15 -17 -15 -6 0 -6 7 2
20 14 22 24 19 15 -5z m-1733 -8 c15 -24 -17 -56 -41 -41 -24 15 -26 29 -7 48
19 19 33 17 48 -7z m1310 0 c15 -24 -17 -56 -41 -41 -24 15 -26 29 -7 48 19
19 33 17 48 -7z m291 12 c7 -11 -22 -49 -37 -49 -12 0 -10 34 4 48 15 15 25
15 33 1z m-1480 -39 c0 -18 -6 -26 -23 -28 -24 -4 -38 18 -28 44 3 9 15 14 28
12 17 -2 23 -10 23 -28z m115 16 c0 -18 -27 -39 -40 -31 -7 4 -7 12 0 26 12
22 40 26 40 5z m950 1 c0 -7 -5 -18 -12 -25 -7 -7 -18 -12 -25 -12 -16 0 -17
22 -1 38 16 16 38 15 38 -1z m245 3 c11 -18 -6 -50 -26 -50 -22 0 -34 22 -25
45 6 17 42 20 51 5z m-1605 -13 c0 -17 -20 -37 -37 -37 -16 0 -17 22 -1 38 16
16 38 15 38 -1z m-166 -31 c-3 -9 -10 -16 -15 -16 -6 0 -5 9 1 21 13 24 24 20
14 -5z m1584 -10 c6 -31 -43 -50 -54 -21 -8 20 15 47 35 43 9 -2 17 -12 19
-22z m298 9 c7 -18 -12 -45 -32 -45 -17 0 -18 32 -2 48 16 16 27 15 34 -3z
m154 1 c0 -16 -24 -38 -33 -30 -8 9 11 44 23 44 6 0 10 -6 10 -14z m-1753 -12
c6 -17 -25 -44 -42 -38 -16 6 -20 35 -8 48 10 10 46 3 50 -10z m238 -15 c0
-19 -5 -24 -24 -24 -30 0 -37 17 -15 39 22 22 39 15 39 -15z m1189 8 c9 -15 7
-21 -9 -33 -22 -16 -34 -14 -49 8 -7 12 -6 21 4 33 16 19 39 16 54 -8z m-1309
-17 c0 -18 -6 -26 -23 -28 -13 -2 -25 3 -28 12 -10 26 4 48 28 44 17 -2 23
-10 23 -28z m-285 4 c0 -16 -23 -44 -35 -44 -18 0 -20 21 -3 38 12 12 38 17
38 6z m987 -19 c-5 -12 -23 -15 -82 -15 -43 0 -75 4 -75 10 0 6 30 10 69 10
39 0 73 5 76 11 10 15 19 3 12 -16z m-517 3 c0 -24 -18 -41 -34 -35 -14 5 -15
11 -6 27 12 22 40 27 40 8z m927 -4 c6 -16 -12 -34 -34 -34 -16 0 -17 22 -1
38 16 16 27 15 35 -4z m129 -9 c8 -19 -13 -45 -36 -45 -20 0 -32 23 -24 45 8
20 53 19 60 0z m182 -7 c-3 -25 -34 -36 -51 -19 -14 14 9 41 35 41 14 0 19 -6
16 -22z m162 8 c0 -21 -29 -41 -41 -29 -7 7 -5 16 6 27 20 20 35 21 35 2z
m-1762 -23 c-4 -34 -48 -48 -48 -16 0 22 18 43 38 43 9 0 12 -9 10 -27z m250
-12 c-2 -20 -8 -26 -28 -26 -30 0 -40 33 -15 51 25 19 47 6 43 -25z m-130 20
c23 -14 10 -46 -21 -49 -23 -3 -27 0 -27 21 0 36 19 47 48 28z m1221 -25 c9
-11 8 -18 -4 -30 -19 -18 -18 -18 -39 -10 -19 7 -21 25 -4 42 16 16 33 15 47
-2z m186 -16 c0 -18 -6 -26 -23 -28 -27 -4 -40 22 -22 44 19 22 45 13 45 -16z
m-1685 6 c0 -16 -28 -42 -36 -33 -8 7 14 47 26 47 6 0 10 -6 10 -14z m475 -17
c0 -17 -6 -25 -21 -27 -27 -4 -38 23 -17 43 21 21 38 14 38 -16z m1383 4 c-2
-10 -13 -19 -26 -21 -24 -4 -29 7 -10 26 18 18 40 15 36 -5z m-1743 -13 c9
-14 -13 -50 -30 -50 -18 0 -20 31 -3 48 15 15 25 15 33 2z m245 -5 c18 -22 8
-50 -19 -50 -32 0 -49 28 -32 49 17 20 35 20 51 1z m186 -1 c-3 -9 -6 -20 -6
-25 0 -5 -9 -9 -20 -9 -22 0 -26 20 -8 38 18 18 41 15 34 -4z m879 -4 c0 -9
-11 -16 -27 -18 -30 -4 -36 6 -16 26 16 16 43 11 43 -8z m193 -6 c4 -29 -23
-51 -43 -34 -16 13 -20 42 -8 54 14 14 48 1 51 -20z m372 1 c-7 -8 -17 -15
-23 -15 -5 0 -2 9 8 20 21 23 35 19 15 -5z m-1755 -15 c0 -16 -6 -26 -19 -28
-27 -6 -40 12 -26 38 15 28 45 22 45 -10z m1562 4 c6 -16 -19 -44 -39 -44 -15
0 -20 30 -8 45 16 20 39 19 47 -1z m-258 -8 c14 -16 5 -42 -16 -50 -17 -7 -43
10 -43 28 0 7 5 17 12 24 16 16 33 15 47 -2z m-1095 -19 c15 -24 -17 -56 -41
-41 -24 15 -26 29 -7 48 19 19 33 17 48 -7z m-493 -20 c-8 -8 -11 -7 -11 4 0
20 13 34 18 19 3 -7 -1 -17 -7 -23z m1507 11 c17 -17 15 -26 -7 -37 -13 -7
-24 -6 -37 3 -15 12 -16 16 -5 30 16 19 33 20 49 4z m262 2 c20 -12 1 -45 -26
-45 -22 0 -32 34 -12 46 17 11 20 11 38 -1z m230 0 c0 -12 -40 -34 -47 -26 -9
8 17 36 33 36 8 0 14 -4 14 -10z m-1432 -27 c-3 -31 -34 -44 -44 -19 -7 19 12
46 33 46 10 0 13 -9 11 -27z m68 -19 c-8 -20 -36 -17 -36 4 0 28 22 46 33 26
5 -8 6 -22 3 -30z m-506 23 c0 -19 -27 -53 -35 -45 -12 12 4 58 20 58 8 0 15
-6 15 -13z m245 3 c12 -20 -6 -50 -31 -50 -18 0 -24 5 -24 23 0 13 3 27 7 30
10 10 41 8 48 -3z m-125 -19 c0 -22 -25 -45 -40 -36 -11 7 -14 38 -3 48 14 15
43 7 43 -12z m1180 4 c0 -10 -10 -15 -30 -15 -29 0 -38 9 -23 23 13 13 53 7
53 -8z m258 6 c23 -14 10 -46 -18 -46 -16 0 -26 6 -28 19 -3 16 12 36 28 36 3
0 11 -4 18 -9z m-73 -27 c18 -18 16 -33 -7 -47 -35 -22 -66 21 -36 51 16 16
23 15 43 -4z m315 -4 c-10 -19 -50 -29 -50 -12 0 14 24 32 42 32 16 0 17 -3 8
-20z m-1470 -5 c26 -31 -18 -71 -47 -42 -19 19 -8 57 16 57 10 0 24 -7 31 -15z
m1078 -26 c3 -28 -16 -43 -43 -33 -15 6 -21 45 -8 58 16 16 48 1 51 -25z
m-838 -18 c0 -3 -5 -13 -10 -21 -15 -24 -34 3 -25 37 6 27 7 27 21 9 8 -11 14
-22 14 -25z m-146 14 c9 -24 -4 -45 -29 -45 -29 0 -38 13 -30 40 8 24 50 27
59 5z m74 -16 c3 -26 -19 -46 -39 -33 -11 6 -12 48 -2 58 15 14 38 0 41 -25z
m827 6 c0 -23 -30 -32 -51 -14 -11 9 -12 15 -2 26 17 20 53 12 53 -12z m413 8
c-4 -23 -58 -31 -58 -9 0 15 14 24 43 25 12 1 17 -5 15 -16z m-1768 -2 c0 -17
-12 -41 -21 -41 -10 0 -12 33 -2 43 9 10 23 9 23 -2z m238 -18 c-3 -31 -34
-44 -44 -19 -9 24 3 46 26 46 17 0 21 -5 18 -27z m1037 18 c9 -16 -28 -31 -48
-20 -10 6 -15 14 -12 20 8 12 52 12 60 0z m-1155 -12 c0 -16 -20 -49 -29 -49
-13 0 -21 27 -15 45 7 17 44 21 44 4z m1565 -24 c0 -22 -31 -33 -48 -16 -7 7
-6 15 3 26 17 21 45 15 45 -10z m-1347 -21 c4 -29 -23 -51 -43 -34 -18 15 -19
32 -3 48 18 18 42 10 46 -14z m332 -21 c0 -18 -29 -16 -36 2 -4 8 -3 23 1 33
6 16 7 16 21 -2 8 -11 14 -26 14 -33z m950 19 c0 -14 -24 -32 -42 -32 -27 0
-35 30 -13 46 18 13 55 3 55 -14z m267 11 c-9 -9 -20 -13 -24 -9 -4 4 -1 11 7
16 25 16 35 11 17 -7z m-687 -17 c0 -22 -17 -28 -40 -16 -29 16 -25 30 10 30
19 0 30 -5 30 -14z m80 -1 c10 -12 10 -18 0 -30 -15 -19 -21 -19 -45 -1 -16
12 -17 16 -6 30 17 20 35 20 51 1z m88 -28 c-4 -28 -46 -30 -62 -4 -9 15 -7
21 8 32 25 19 58 2 54 -28z m70 34 c8 -4 12 -19 10 -32 -2 -18 -9 -24 -28 -24
-19 0 -26 6 -28 24 -3 20 11 41 28 41 3 0 11 -4 18 -9z m92 -6 c10 -12 10 -18
0 -30 -27 -32 -71 -8 -56 30 3 8 14 15 24 15 11 0 25 -7 32 -15z m-1092 -22
c4 -30 -31 -49 -52 -27 -12 12 -13 20 -5 35 14 27 53 22 57 -8z m85 6 c23 -37
-25 -68 -52 -35 -9 11 -10 20 -1 36 13 24 38 23 53 -1z m82 1 c8 -25 -1 -40
-25 -40 -20 0 -32 22 -24 45 9 22 42 18 49 -5z m-390 0 c10 -16 -5 -50 -21
-50 -17 0 -28 24 -20 45 6 17 32 20 41 5z m825 0 c0 -5 -2 -10 -4 -10 -3 0 -8
5 -11 10 -3 6 -1 10 4 10 6 0 11 -4 11 -10z m800 0 c0 -13 -41 -30 -54 -22
-11 6 22 32 41 32 7 0 13 -5 13 -10z m-1867 -20 c-3 -11 -7 -20 -9 -20 -2 0
-4 9 -4 20 0 11 4 20 9 20 5 0 7 -9 4 -20z m115 -5 c-2 -14 -7 -26 -13 -26 -5
0 -11 12 -13 26 -2 18 1 25 13 25 12 0 15 -7 13 -25z m650 13 c13 -13 16 -48
4 -48 -14 0 -32 23 -32 42 0 21 11 23 28 6z m380 -20 c4 -21 -27 -25 -46 -6
-20 20 -14 30 15 26 17 -2 29 -10 31 -20z m-800 -30 c3 -25 -20 -44 -39 -32
-13 8 -11 52 4 57 21 9 32 1 35 -25z m367 -3 c0 -33 -21 -41 -38 -14 -14 22
-1 51 20 47 13 -2 18 -13 18 -33z m149 12 c12 -19 3 -32 -19 -24 -17 7 -21 51
-3 45 6 -2 16 -12 22 -21z m194 -11 c2 -9 -3 -16 -11 -16 -17 0 -50 34 -41 43
10 10 49 -9 52 -27z m170 8 c4 -27 -26 -40 -46 -20 -21 20 -8 48 20 44 14 -2
24 -11 26 -24z m562 11 c-13 -16 -50 -21 -50 -7 0 15 13 22 38 22 21 0 22 -2
12 -15z m-826 -17 c5 -9 7 -20 3 -25 -11 -10 -41 11 -45 31 -5 23 26 18 42 -6z
m341 -18 c0 -18 -6 -26 -23 -28 -13 -2 -25 3 -28 12 -10 26 4 48 28 44 17 -2
23 -10 23 -28z m410 10 c0 -9 -11 -16 -27 -18 -30 -4 -36 6 -16 26 16 16 43
11 43 -8z m-1271 4 c20 -8 21 -38 1 -54 -29 -24 -60 21 -33 48 14 14 12 14 32
6z m201 -24 c0 -18 -6 -26 -23 -28 -24 -4 -38 18 -28 44 3 9 15 14 28 12 17
-2 23 -10 23 -28z m739 14 c22 -21 3 -56 -27 -52 -25 3 -34 32 -17 53 16 19
25 19 44 -1z m-1159 -24 c0 -13 -6 -25 -12 -27 -16 -6 -27 21 -19 43 9 23 31
11 31 -16z m330 0 c0 -20 -6 -26 -26 -28 -28 -3 -43 16 -32 44 3 9 15 14 32
12 20 -2 26 -8 26 -28z m253 21 c17 -11 12 -56 -7 -56 -19 0 -36 29 -28 49 7
18 16 20 35 7z m320 -19 c4 -28 -24 -40 -45 -19 -21 21 -9 49 19 45 15 -2 24
-11 26 -26z m342 13 c18 -21 5 -45 -25 -45 -14 0 -28 7 -31 15 -7 17 12 45 31
45 7 0 18 -7 25 -15z m167 -2 c6 -17 -36 -38 -49 -25 -17 17 -1 44 24 40 12
-2 23 -8 25 -15z m-1527 -17 c0 -14 -5 -28 -10 -31 -13 -8 -24 20 -16 40 9 24
26 17 26 -9z m1448 2 c4 -21 -34 -34 -53 -18 -8 6 -11 18 -8 26 8 20 57 14 61
-8z m-638 -8 c13 -25 5 -40 -21 -40 -22 0 -34 22 -25 45 8 21 33 19 46 -5z
m94 14 c21 -8 21 -43 0 -51 -20 -8 -49 21 -41 41 7 17 16 19 41 10z m196 -38
c0 -20 -27 -39 -45 -32 -25 9 -30 37 -10 52 20 15 55 2 55 -20z m-465 -11 c0
-23 -5 -30 -19 -30 -24 0 -41 27 -33 49 4 11 15 16 29 14 18 -2 23 -9 23 -33z
m-405 1 c0 -32 -20 -44 -36 -22 -16 23 -7 46 17 46 13 0 19 -7 19 -24z m1496
-1 c-19 -15 -46 -20 -46 -10 0 6 40 24 55 24 6 0 1 -6 -9 -14z m-1168 -22 c4
-30 -31 -49 -52 -27 -19 19 -20 26 -4 42 19 19 53 10 56 -15z m202 -7 c0 -20
-27 -39 -45 -32 -25 9 -30 37 -10 52 20 15 55 2 55 -20z m218 25 c23 -14 10
-46 -19 -49 -30 -4 -46 22 -28 44 13 16 28 17 47 5z m196 -6 c9 -25 -5 -45
-30 -45 -14 0 -27 7 -30 15 -10 25 4 45 30 45 13 0 26 -7 30 -15z m-1061 -14
c6 -24 -7 -46 -22 -37 -12 8 -15 39 -4 49 11 12 21 8 26 -12z m232 -11 c0 -38
-39 -35 -43 3 -3 25 0 28 20 25 17 -2 23 -9 23 -28z m104 16 c25 -30 -16 -67
-44 -40 -18 19 -19 26 -3 42 16 16 33 15 47 -2z m409 2 c27 -27 -5 -73 -38
-53 -14 9 -12 52 3 58 19 8 22 8 35 -5z m386 -13 c20 -21 9 -45 -20 -45 -29 0
-41 24 -24 45 16 19 25 19 44 0z m414 3 c-3 -7 -18 -14 -34 -16 -28 -2 -28 -2
-10 13 24 18 49 20 44 3z m-1668 -25 c0 -22 -2 -25 -10 -13 -13 20 -13 40 0
40 6 0 10 -12 10 -27z m1070 -24 c0 -24 -27 -36 -48 -22 -23 14 -25 29 -7 47
21 20 55 5 55 -25z m271 25 c11 -14 10 -18 -5 -30 -21 -15 -56 -3 -56 21 0 26
42 32 61 9z m249 2 c0 -19 -39 -31 -53 -17 -9 9 -8 14 3 21 22 14 50 12 50 -4z
m-906 -11 c9 -25 -5 -45 -30 -45 -26 0 -40 20 -30 45 3 8 16 15 30 15 13 0 26
-7 30 -15z m735 6 c19 -12 6 -41 -17 -41 -27 0 -45 23 -30 38 14 14 28 15 47
3z m86 -11 c0 -9 -11 -16 -27 -18 -27 -3 -38 14 -21 32 12 12 48 2 48 -14z
m-1267 -23 c2 -19 -1 -27 -13 -27 -19 0 -30 24 -21 46 9 23 31 11 34 -19z
m571 9 c13 -16 -1 -56 -19 -56 -23 0 -40 14 -40 35 0 34 38 47 59 21z m129
-18 c2 -20 -2 -28 -19 -33 -30 -10 -53 19 -38 47 15 29 53 20 57 -14z m-350
-1 c6 -28 -16 -49 -39 -36 -19 10 -25 39 -12 53 13 13 48 1 51 -17z m-223 -7
c8 -24 -1 -40 -21 -40 -17 0 -28 24 -20 45 8 22 34 18 41 -5z m103 8 c16 -16
15 -45 0 -50 -22 -8 -38 3 -38 26 0 35 16 46 38 24z m667 -18 c0 -20 -5 -25
-25 -25 -20 0 -26 6 -28 28 -3 26 -1 28 25 25 22 -2 28 -8 28 -28z m-1007 -9
c3 -16 -1 -22 -10 -19 -7 3 -15 15 -16 27 -3 16 1 22 10 19 7 -3 15 -15 16
-27z m590 -24 c3 -23 0 -27 -23 -27 -30 0 -43 24 -25 46 19 22 45 13 48 -19z
m490 21 c21 -21 13 -38 -17 -38 -31 0 -46 21 -28 39 14 14 30 14 45 -1z m-210
-26 c4 -28 -24 -40 -45 -19 -21 21 -9 49 19 45 15 -2 24 -11 26 -26z m-750
-16 c3 -20 0 -27 -10 -24 -7 3 -14 17 -16 32 -3 20 0 27 10 24 7 -3 14 -17 16
-32z m611 20 c15 -18 4 -46 -19 -46 -23 0 -44 26 -36 45 7 19 40 20 55 1z
m439 -19 c3 -15 -2 -18 -25 -15 -17 2 -29 10 -31 21 -3 15 2 18 25 15 17 -2
29 -10 31 -21z m322 14 c0 -12 -39 -21 -45 -11 -3 5 3 11 12 13 29 8 33 7 33
-2z m-1005 -31 c0 -38 -39 -35 -43 3 -3 25 0 28 20 25 17 -2 23 -9 23 -28z
m749 24 c28 -11 18 -34 -14 -34 -18 0 -30 5 -30 13 0 25 15 32 44 21z m-986
-37 c2 -19 -1 -27 -12 -27 -17 0 -31 34 -21 50 11 18 30 5 33 -23z m120 10 c5
-28 -5 -47 -22 -41 -18 7 -30 39 -21 54 10 17 39 7 43 -13z m572 -18 c0 -15
-5 -20 -21 -17 -30 4 -49 35 -30 48 21 12 51 -6 51 -31z m393 26 c1 -5 -13
-11 -30 -13 -31 -3 -42 6 -26 22 10 10 53 3 56 -9z m82 5 c-3 -5 -17 -10 -31
-10 -13 0 -24 5 -24 10 0 6 14 10 31 10 17 0 28 -4 24 -10z m-1405 -31 c0 -11
-4 -17 -10 -14 -5 3 -10 15 -10 26 0 11 5 17 10 14 6 -3 10 -15 10 -26z m620
6 c16 -20 6 -45 -19 -45 -20 0 -37 32 -26 50 9 15 31 12 45 -5z m159 -13 c10
-18 -2 -42 -20 -42 -16 0 -38 31 -33 45 8 21 41 19 53 -3z m228 -18 c3 -9 0
-20 -7 -24 -23 -14 -66 12 -54 32 9 14 54 8 61 -8z m-879 -22 c4 -25 -13 -30
-22 -6 -9 25 -7 36 7 32 6 -3 13 -14 15 -26z m380 16 c16 -16 15 -48 -2 -48
-20 0 -39 27 -32 45 7 18 18 19 34 3z m-238 -49 c0 -11 -4 -19 -9 -19 -16 0
-33 30 -27 46 5 13 9 14 21 4 8 -7 15 -21 15 -31z m121 20 c7 -15 8 -24 0 -32
-14 -14 -41 9 -41 34 0 26 27 24 41 -2z m447 9 c20 -20 14 -38 -12 -38 -24 0
-41 23 -30 41 7 13 28 11 42 -3z m241 -1 c13 -16 5 -27 -19 -27 -20 0 -43 24
-33 33 11 12 40 8 52 -6z m-401 -25 c3 -20 0 -23 -20 -20 -15 2 -24 11 -26 26
-3 20 0 23 20 20 15 -2 24 -11 26 -26z m482 3 c10 -12 9 -16 -3 -21 -19 -7
-60 14 -52 27 9 14 41 11 55 -6z m85 -15 c4 -6 -7 -10 -24 -10 -17 0 -31 5
-31 10 0 6 11 10 24 10 14 0 28 -4 31 -10z m75 0 c0 -5 -12 -10 -26 -10 -14 0
-23 4 -19 10 3 6 15 10 26 10 10 0 19 -4 19 -10z m-760 -15 c7 -8 10 -22 6
-30 -8 -22 -46 -1 -46 25 0 24 22 26 40 5z m349 6 c20 -13 6 -42 -16 -34 -18
7 -33 22 -33 36 0 10 32 9 49 -2z m-755 -17 c9 -24 7 -28 -9 -14 -17 14 -20
30 -6 30 5 0 12 -7 15 -16z m282 -26 c3 -11 3 -22 0 -26 -10 -9 -49 35 -42 47
9 15 34 3 42 -21z m288 26 c19 -7 22 -44 3 -44 -17 0 -37 20 -37 37 0 14 10
16 34 7z m-424 -25 c7 -11 9 -23 6 -26 -8 -9 -36 17 -36 33 0 21 18 17 30 -7z
m689 -3 c8 -10 9 -16 2 -21 -13 -7 -51 12 -51 25 0 15 36 12 49 -4z m-371 -34
c13 -19 13 -22 -1 -22 -20 0 -49 29 -41 41 8 14 25 6 42 -19z m180 6 c19 -19
14 -30 -10 -26 -13 2 -24 11 -26 21 -4 20 18 23 36 5z m267 1 c4 -6 5 -13 2
-16 -8 -7 -47 7 -47 18 0 13 37 11 45 -2z m-578 -55 c-10 -10 -37 16 -37 34 0
13 4 12 22 -5 12 -13 19 -25 15 -29z m663 36 c0 -5 -9 -10 -19 -10 -11 0 -23
5 -26 10 -4 6 5 10 19 10 14 0 26 -4 26 -10z m-802 -36 c-10 -10 -28 6 -28 24
0 15 1 15 17 -1 9 -9 14 -19 11 -23z m528 4 c9 -14 -2 -21 -25 -13 -28 8 -28
35 -1 28 11 -3 23 -10 26 -15z m-201 -8 c14 -16 15 -20 4 -20 -16 0 -39 19
-39 32 0 14 16 9 35 -12z m265 -20 c8 -5 12 -12 9 -15 -8 -8 -39 5 -39 16 0
11 11 11 30 -1z m-405 -11 c12 -19 -5 -23 -22 -6 -16 16 -16 17 -1 17 9 0 20
-5 23 -11z m211 -26 c-8 -8 -36 5 -36 17 0 7 6 7 21 0 11 -7 18 -14 15 -17z
m-1885 -93 c10 -6 19 -15 19 -21 0 -6 -7 -6 -19 1 -27 14 -94 13 -109 -2 -16
-16 -15 -53 1 -66 7 -6 38 -20 70 -32 31 -12 62 -30 67 -40 17 -32 11 -70 -15
-95 -33 -34 -121 -36 -156 -4 l-24 21 25 -7 c88 -25 150 -9 150 38 0 34 -10
44 -81 75 -36 17 -69 37 -73 47 -20 54 15 95 82 95 24 0 52 -5 63 -10z m229
-50 l0 -60 60 0 60 0 0 60 c0 47 3 60 15 60 13 0 15 -23 15 -145 0 -120 -2
-145 -15 -145 -11 0 -15 17 -17 73 l-3 72 -55 0 -55 0 -3 -72 c-2 -56 -6 -73
-17 -73 -13 0 -15 25 -15 145 0 122 2 145 15 145 12 0 15 -13 15 -60z m471
-85 c30 -95 42 -145 34 -145 -7 0 -19 18 -28 40 l-15 40 -61 0 -60 0 -12 -40
c-7 -23 -18 -40 -27 -40 -8 0 -12 6 -9 13 2 6 24 72 48 145 37 112 47 132 64
132 17 0 27 -21 66 -145z m322 134 c12 -7 25 -17 29 -23 14 -21 8 -63 -12 -81
-19 -17 -19 -18 10 -45 36 -34 38 -60 6 -96 -20 -24 -32 -28 -90 -32 l-66 -4
0 146 0 146 51 0 c28 0 60 -5 72 -11z m377 1 c0 -5 -13 -10 -30 -10 l-30 0 0
-125 0 -125 30 0 c17 0 30 -4 30 -10 0 -6 -34 -10 -82 -10 -50 0 -78 4 -72 9
5 5 20 11 34 13 l25 3 0 120 0 120 -25 3 c-14 2 -29 8 -34 13 -6 5 22 9 72 9
48 0 82 -4 82 -10z m319 -5 c46 -23 47 -78 2 -112 -14 -10 -12 -13 12 -24 30
-14 43 -45 33 -83 -8 -32 -62 -56 -125 -56 l-51 0 0 145 0 145 50 0 c28 0 64
-7 79 -15z m362 4 c11 -5 17 -14 14 -20 -4 -6 -13 -5 -25 1 -28 15 -96 12
-110 -4 -22 -27 -8 -60 35 -79 110 -49 110 -49 113 -93 3 -35 -1 -45 -24 -63
-32 -25 -119 -29 -150 -7 -24 18 -13 31 14 17 31 -16 93 -13 114 6 21 19 24
66 5 81 -7 6 -38 20 -70 32 -80 30 -98 70 -52 115 19 19 35 25 70 25 26 0 55
-5 66 -11z m343 -127 c25 -75 46 -140 46 -145 0 -4 -6 -7 -14 -7 -8 0 -18 16
-23 38 l-9 37 -62 3 -63 3 -16 -41 c-14 -34 -33 -54 -33 -33 0 5 64 208 85
271 2 6 13 12 24 12 16 0 27 -24 65 -138z m322 123 c42 -17 64 -63 64 -131 0
-94 -50 -144 -144 -144 l-46 0 0 145 0 145 45 0 c25 0 61 -7 81 -15z m370
-125 c24 -74 44 -139 44 -143 0 -21 -25 3 -35 34 l-12 34 -64 0 -64 0 -11 -35
c-10 -31 -34 -54 -34 -33 0 4 21 70 46 146 40 121 49 138 66 135 17 -2 29 -27
64 -138z m384 131 c0 -6 -19 -11 -42 -13 l-43 -3 -3 -132 c-2 -108 -5 -133
-17 -133 -12 0 -15 25 -17 133 l-3 132 -42 3 c-24 2 -43 7 -43 13 0 5 46 9
105 9 59 0 105 -4 105 -9z m274 -33 c20 -56 76 -233 76 -242 0 -20 -25 4 -35
35 -12 34 -12 34 -75 34 -63 0 -63 0 -75 -34 -10 -31 -35 -55 -35 -34 0 4 21
70 46 145 37 111 49 138 64 138 12 0 23 -14 34 -42z m-4349 -457 c3 -5 -9 -11
-27 -13 l-33 -3 -3 -92 c-1 -51 -7 -93 -12 -93 -5 0 -11 42 -12 93 l-3 92 -27
3 c-16 2 -28 8 -28 13 0 12 137 12 145 0z m300 -1 c4 -6 -15 -10 -49 -10 l-56
0 0 -40 0 -40 50 0 c28 0 50 -4 50 -10 0 -5 -22 -10 -50 -10 l-50 0 0 -35 0
-35 49 0 c28 0 53 -4 56 -10 4 -6 -20 -10 -64 -10 l-71 0 0 105 0 105 64 0
c36 0 68 -4 71 -10z m203 -88 l3 -92 49 0 c28 0 50 -4 50 -10 0 -6 -28 -10
-65 -10 l-65 0 0 106 c0 80 3 105 13 102 8 -3 13 -34 15 -96z m402 89 c0 -6
-24 -11 -52 -13 l-53 -3 -3 -37 -3 -38 50 0 c28 0 51 -4 51 -10 0 -5 -22 -10
-50 -10 l-50 0 0 -35 0 -35 55 0 c30 0 55 -4 55 -10 0 -6 -28 -10 -65 -10
l-65 0 0 105 0 105 65 0 c36 0 65 -4 65 -9z m312 -8 c10 -9 18 -20 18 -25 0
-13 -27 -9 -40 7 -13 16 -57 20 -78 6 -9 -5 -12 -29 -10 -82 l3 -74 40 -3 c28
-3 43 1 51 13 7 9 18 14 24 10 8 -5 6 -13 -6 -26 -22 -25 -100 -26 -126 -2
-25 22 -26 148 -1 175 21 24 99 25 125 1z m330 0 c14 -13 18 -31 18 -86 0 -90
-13 -107 -83 -107 -72 0 -87 17 -87 99 0 91 15 111 82 111 34 0 58 -6 70 -17z
m250 -62 c17 -40 34 -69 37 -64 4 4 20 38 35 76 42 100 56 90 56 -39 0 -80 -3
-105 -12 -102 -8 3 -15 30 -18 69 l-5 64 -24 -57 c-13 -32 -29 -58 -35 -58 -6
0 -23 26 -38 58 l-26 57 -1 -67 c-1 -53 -4 -68 -16 -68 -12 0 -15 18 -15 98 0
140 14 148 62 33z m364 8 c15 -38 31 -72 34 -74 4 -3 21 28 38 68 43 103 56
96 60 -30 2 -87 0 -103 -13 -103 -12 0 -15 14 -16 68 l-1 67 -26 -57 c-15 -32
-32 -58 -38 -58 -7 0 -22 26 -35 58 l-24 57 -5 -64 c-3 -39 -10 -66 -17 -69
-10 -3 -13 22 -13 102 0 131 15 140 56 35z m334 -12 c0 -92 8 -107 55 -107 47
0 55 15 55 107 0 49 4 83 10 83 15 0 13 -183 -2 -198 -16 -16 -110 -16 -126 0
-15 15 -17 198 -2 198 6 0 10 -34 10 -83z m386 6 l49 -78 5 74 c3 47 10 76 18
79 9 3 12 -22 12 -102 0 -132 -10 -135 -76 -28 l-49 77 -3 -78 c-2 -56 -6 -77
-15 -74 -8 2 -13 34 -15 92 -5 142 6 147 74 38z m292 -31 c2 -86 0 -102 -13
-102 -12 0 -15 17 -15 106 0 80 3 105 13 102 8 -3 13 -36 15 -106z m314 91
c10 -9 18 -20 18 -25 0 -13 -20 -9 -36 7 -19 19 -68 19 -83 1 -7 -9 -11 -41
-9 -83 l3 -68 38 -3 c26 -2 45 2 58 14 22 20 38 11 23 -14 -16 -25 -110 -29
-135 -6 -26 23 -27 148 -2 176 21 24 99 25 125 1z m304 -82 c19 -51 34 -97 34
-102 0 -19 -21 -8 -30 16 -8 21 -16 25 -54 25 -38 0 -45 -3 -50 -25 -4 -14
-13 -25 -21 -25 -11 0 -7 21 20 96 19 52 37 100 41 105 13 22 28 -1 60 -90z
m314 89 c0 -5 -13 -10 -30 -10 l-30 0 0 -95 c0 -77 -3 -95 -15 -95 -11 0 -15
19 -17 93 l-3 92 -27 3 c-58 7 -25 22 47 22 43 0 75 -4 75 -10z m190 -95 c0
-63 -4 -105 -10 -105 -6 0 -10 42 -10 105 0 63 4 105 10 105 6 0 10 -42 10
-105z m322 88 c14 -13 18 -31 18 -93 0 -46 -5 -81 -12 -88 -18 -18 -108 -15
-130 5 -25 22 -26 148 -1 175 21 24 99 25 125 1z m235 -7 c10 -13 32 -46 48
-74 17 -29 33 -52 38 -52 4 0 7 34 7 75 0 72 13 100 25 53 10 -41 1 -181 -12
-185 -7 -3 -33 27 -58 66 -25 39 -50 71 -55 71 -6 0 -10 -31 -10 -70 0 -40 -4
-70 -10 -70 -6 0 -10 42 -10 105 0 58 4 105 9 105 5 0 18 -11 28 -24z"/>
<path d="M1866 1792 c-13 -21 -45 -136 -40 -144 6 -9 88 -11 96 -2 6 5 -36
141 -46 151 -2 3 -7 0 -10 -5z"/>
<path d="M2167 1803 c-4 -3 -7 -26 -7 -50 0 -50 12 -59 66 -49 77 15 64 106
-15 106 -21 0 -41 -3 -44 -7z"/>
<path d="M2164 1666 c-3 -7 -4 -33 -2 -57 l3 -44 49 1 c35 0 52 5 62 19 19 26
17 59 -4 78 -23 21 -100 23 -108 3z"/>
<path d="M2854 1796 c-3 -8 -4 -31 -2 -52 3 -36 6 -39 35 -42 64 -6 105 47 68
88 -22 24 -93 28 -101 6z"/>
<path d="M2854 1666 c-3 -7 -4 -33 -2 -57 l3 -44 49 1 c35 0 52 5 62 19 19 26
17 59 -4 78 -23 21 -100 23 -108 3z"/>
<path d="M3586 1778 c-3 -7 -11 -35 -20 -62 -24 -74 -23 -76 34 -76 58 0 58 1
29 88 -20 59 -35 77 -43 50z"/>
<path d="M3884 1797 c-2 -7 -3 -62 -2 -123 l3 -109 43 1 c69 1 87 27 87 120 0
71 -2 77 -28 100 -31 26 -94 33 -103 11z"/>
<path d="M4262 1732 c-12 -38 -22 -74 -22 -80 0 -8 18 -12 50 -12 35 0 50 4
50 13 0 19 -39 130 -48 139 -5 5 -18 -23 -30 -60z"/>
<path d="M4966 1778 c-3 -7 -11 -35 -20 -62 -24 -74 -23 -76 34 -76 28 0 50 4
50 9 0 5 -9 39 -20 75 -20 62 -36 82 -44 54z"/>
<path d="M2101 1306 c-7 -9 -11 -41 -9 -83 l3 -68 50 0 50 0 3 68 c3 79 -6 97
-53 97 -18 0 -38 -6 -44 -14z"/>
<path d="M4391 1259 c-16 -47 -14 -59 12 -59 33 0 37 7 25 43 -16 48 -24 52
-37 16z"/>
<path d="M5181 1306 c-7 -9 -11 -41 -9 -83 l3 -68 38 -3 c56 -5 67 10 67 84 0
52 -3 65 -19 74 -28 14 -66 12 -80 -4z"/>
</g>
</svg>
